<svg width="133" height="31" viewBox="0 0 133 31" fill="none" xmlns="http://www.w3.org/2000/svg">
<g clip-path="url(#clip0_2285_16)">
<path d="M8.16582 0.164986C6.00013 0.49312 4.28653 1.35356 2.76253 2.87757C1.30415 4.33595 0.450997 5.96204 0.108278 7.94544C-0.0229761 8.6965 -0.0375599 10.2788 0.0791105 11.1028C0.509332 14.2092 2.32501 17.6145 5.40219 21.0781C8.18041 24.2064 12.3003 27.6336 16.5005 30.2951C17.0109 30.6232 17.463 30.8857 17.4995 30.8857C17.5942 30.8857 18.5276 30.3024 19.8401 29.4201C24.9591 25.971 29.4655 21.7563 31.9812 18.052C34.0156 15.055 35 12.306 35 9.59341C35 6.91728 34.1104 4.75159 32.2364 2.87757C30.9165 1.55774 29.6186 0.821257 27.8175 0.361866C26.9206 0.128525 25.2143 0.048315 24.2882 0.179569C21.736 0.551456 19.5193 1.87129 18.0026 3.92031C17.7547 4.24845 17.5286 4.52554 17.4995 4.52554C17.4703 4.52554 17.2515 4.26303 17.0109 3.94219C15.5233 1.92962 13.4452 0.653542 10.9805 0.22332C10.3899 0.121233 8.66896 0.084774 8.16582 0.164986ZM14.5025 5.80162C15.5525 6.28289 16.3546 7.63189 16.4567 9.11943C16.5369 10.2424 16.2307 11.1612 15.6036 11.7299C14.8014 12.4518 13.8025 12.3206 12.9128 11.3799C11.3743 9.75383 11.4763 6.5381 13.0879 5.79433C13.4743 5.61203 14.0941 5.61932 14.5025 5.80162ZM22.0861 5.89642C23.2382 6.66206 23.5371 8.74755 22.7204 10.4393C22.4288 11.0518 21.8673 11.6862 21.386 11.9414C20.1683 12.5977 18.9724 11.8976 18.6224 10.3372C18.2359 8.59442 19.0307 6.54539 20.3652 5.87454C20.7589 5.67037 20.8756 5.64849 21.2985 5.67037C21.6777 5.69224 21.8454 5.74329 22.0861 5.89642ZM9.59503 11.132C9.90859 11.2487 10.1346 11.4164 10.4919 11.7737C11.5711 12.8602 11.9649 14.4863 11.4107 15.6092C10.769 16.9291 9.01898 16.6665 8.01269 15.1134C7.021 13.5821 7.12308 11.7226 8.23145 11.1466C8.6398 10.9351 9.05543 10.9351 9.59503 11.132ZM26.7602 11.1393C28.3862 11.9633 27.6862 15.3321 25.7028 16.2728C24.9664 16.6228 24.1132 16.4478 23.7267 15.8717C22.983 14.7488 23.3257 12.9623 24.507 11.7737C25.258 11.0153 26.0674 10.7893 26.7602 11.1393ZM18.5932 14.2165C21.0433 14.6613 23.0267 16.5499 23.8142 19.1822C23.9965 19.7729 24.0111 19.9552 24.0184 21.0417C24.033 23.1782 23.6611 24.0459 22.6767 24.2137C22.2392 24.2866 21.9913 24.1991 21.3423 23.7543C21.0141 23.5355 20.4818 23.2293 20.1537 23.0761C18.0755 22.099 15.5379 22.3615 13.6712 23.7543C13.1389 24.1553 12.7816 24.2793 12.3587 24.2209C11.3451 24.0678 10.9659 23.2001 10.9805 21.0417C10.9878 19.9552 11.0024 19.7729 11.1847 19.1822C12.2274 15.7113 15.3338 13.6258 18.5932 14.2165Z" fill="#FF6B55"/>
</g>
<path d="M48.0768 20.2958C48.273 20.4854 48.5495 20.6663 48.9063 20.8387C49.263 20.9938 49.7357 21.0714 50.3243 21.0714C51.3053 21.0714 52.1169 20.8301 52.759 20.3475C53.419 19.8476 53.7489 19.1582 53.7489 18.2792C53.7489 17.6415 53.5349 17.1072 53.1068 16.6763C52.6966 16.2454 52.1704 15.849 51.5283 15.4871C50.8861 15.1251 50.1994 14.7718 49.4681 14.4271C48.7368 14.0651 48.0501 13.6429 47.408 13.1603C46.7658 12.6777 46.2307 12.1089 45.8027 11.454C45.3924 10.7818 45.1873 9.9545 45.1873 8.97208C45.1873 8.12754 45.3478 7.39504 45.6689 6.77456C45.9899 6.15408 46.4269 5.64564 46.9799 5.24922C47.5507 4.83557 48.2195 4.53395 48.9865 4.34436C49.7535 4.13754 50.5829 4.03413 51.4747 4.03413C52.5628 4.03413 53.5706 4.11169 54.4981 4.26681C55.4434 4.40469 56.2907 4.62875 57.0398 4.93899C57.022 5.2837 56.9863 5.68011 56.9328 6.12823C56.8971 6.57635 56.8436 7.02447 56.7723 7.47259C56.7009 7.90348 56.6207 8.31713 56.5315 8.71355C56.4601 9.09273 56.3888 9.41158 56.3174 9.67011H55.2205L53.9897 6.12823C53.7757 6.02482 53.4546 5.93002 53.0265 5.84385C52.6163 5.75767 52.1882 5.71458 51.7423 5.71458C50.9932 5.71458 50.3599 5.90417 49.8427 6.28335C49.3254 6.66253 49.0668 7.21406 49.0668 7.93795C49.0668 8.5929 49.2808 9.15305 49.7089 9.61841C50.137 10.0665 50.6721 10.4802 51.3142 10.8594C51.9563 11.2385 52.652 11.6177 53.4011 11.9969C54.1681 12.3588 54.8727 12.7811 55.5148 13.2637C56.1569 13.7463 56.692 14.3151 57.1201 14.97C57.5482 15.6077 57.7622 16.4006 57.7622 17.3485C57.7622 19.072 57.1558 20.4078 55.9429 21.3557C54.7478 22.2865 52.982 22.7518 50.6453 22.7518C50.0746 22.7518 49.4949 22.7173 48.9063 22.6484C48.3355 22.5795 47.7915 22.4847 47.2742 22.364C46.7569 22.2434 46.2932 22.1141 45.8829 21.9762C45.4905 21.8383 45.1962 21.6918 45 21.5367C45.0178 21.1403 45.0624 20.718 45.1338 20.2699C45.2051 19.8046 45.2765 19.3478 45.3478 18.8997C45.437 18.4343 45.5262 17.9948 45.6154 17.5812C45.7046 17.1675 45.7937 16.8056 45.8829 16.4953H46.9799L48.0768 20.2958Z" fill="#001D23"/>
<path d="M70.9958 20.3475C70.8709 20.6922 70.6658 21.011 70.3804 21.304C70.095 21.5798 69.7472 21.8297 69.3369 22.0538C68.9445 22.2778 68.4897 22.4502 67.9724 22.5708C67.473 22.6915 66.9468 22.7518 66.3939 22.7518C65.2167 22.7518 64.2 22.5967 63.3438 22.2865C62.5055 21.959 61.8098 21.5022 61.2569 20.9162C60.704 20.313 60.2937 19.5977 60.0262 18.7704C59.7586 17.9259 59.6248 16.9952 59.6248 15.9783C59.6248 13.7894 60.2402 12.1175 61.4709 10.9628C62.7195 9.79076 64.4853 9.20476 66.7685 9.20476C67.6425 9.20476 68.4451 9.29955 69.1764 9.48914C69.9077 9.6615 70.5142 9.86832 70.9958 10.1096C70.9601 10.4026 70.9066 10.7301 70.8352 11.092C70.7817 11.4367 70.7104 11.7901 70.6212 12.152C70.5498 12.4967 70.4607 12.8414 70.3536 13.1861C70.2466 13.5136 70.1396 13.7894 70.0326 14.0134H68.7216L67.5979 10.9369C67.473 10.8507 67.3392 10.7904 67.1965 10.7559C67.0538 10.7042 66.8398 10.6784 66.5544 10.6784C66.0907 10.6784 65.6893 10.7646 65.3504 10.9369C65.0115 11.092 64.7172 11.3678 64.4675 11.7642C64.2356 12.1606 64.0573 12.6863 63.9324 13.3413C63.8254 13.9962 63.7719 14.8063 63.7719 15.7715C63.7719 16.4781 63.8521 17.1331 64.0127 17.7363C64.1732 18.3223 64.414 18.8394 64.7351 19.2875C65.074 19.7184 65.4931 20.0631 65.9926 20.3216C66.492 20.5629 67.0806 20.6836 67.7584 20.6836C68.3827 20.6836 68.9267 20.5974 69.3905 20.425C69.8542 20.2527 70.2466 20.0458 70.5677 19.8046L70.9958 20.3475Z" fill="#001D23"/>
<path d="M72.1924 15.9783C72.1924 14.9269 72.353 13.9876 72.674 13.1603C73.0129 12.3158 73.4856 11.6005 74.092 11.0145C74.7163 10.4285 75.4655 9.98035 76.3395 9.67011C77.2135 9.35988 78.2034 9.20476 79.3093 9.20476C80.5579 9.20476 81.6281 9.37711 82.5199 9.72182C83.4296 10.0493 84.1698 10.5147 84.7406 11.1179C85.3292 11.7039 85.7573 12.4192 86.0248 13.2637C86.2924 14.091 86.4262 14.9959 86.4262 15.9783C86.4262 17.0296 86.2656 17.9776 85.9446 18.8221C85.6235 19.6494 85.1508 20.3561 84.5266 20.9421C83.9201 21.5281 83.171 21.9762 82.2791 22.2865C81.4051 22.5967 80.4152 22.7518 79.3093 22.7518C78.0964 22.7518 77.044 22.5881 76.1522 22.2606C75.2604 21.9159 74.5201 21.4505 73.9315 20.8645C73.3429 20.2613 72.9059 19.546 72.6205 18.7187C72.3351 17.8742 72.1924 16.9607 72.1924 15.9783ZM76.3395 15.9783C76.3395 16.7539 76.3841 17.4691 76.4733 18.1241C76.5803 18.7618 76.7586 19.3047 77.0084 19.7528C77.2581 20.201 77.597 20.5543 78.0251 20.8128C78.4531 21.0541 79.0061 21.1748 79.6839 21.1748C80.0763 21.1748 80.433 21.0886 80.7541 20.9162C81.0751 20.7266 81.3516 20.4336 81.5835 20.0372C81.8154 19.6236 81.9848 19.0893 82.0918 18.4343C82.2167 17.7621 82.2791 16.9435 82.2791 15.9783C82.2791 15.1855 82.2256 14.4702 82.1186 13.8325C82.0294 13.1948 81.86 12.6518 81.6102 12.2037C81.3784 11.7556 81.0573 11.4109 80.6471 11.1696C80.2368 10.9111 79.7196 10.7818 79.0953 10.7818C78.6315 10.7818 78.2302 10.8766 77.8913 11.0662C77.5524 11.2385 77.267 11.5315 77.0351 11.9452C76.8032 12.3416 76.6249 12.8759 76.5 13.5481C76.393 14.203 76.3395 15.0131 76.3395 15.9783Z" fill="#001D23"/>
<path d="M88.0783 15.9783C88.0783 14.9269 88.2388 13.9876 88.5599 13.1603C88.8988 12.3158 89.3715 11.6005 89.9779 11.0145C90.6022 10.4285 91.3514 9.98035 92.2254 9.67011C93.0994 9.35988 94.0893 9.20476 95.1952 9.20476C96.4438 9.20476 97.514 9.37711 98.4058 9.72182C99.3155 10.0493 100.056 10.5147 100.626 11.1179C101.215 11.7039 101.643 12.4192 101.911 13.2637C102.178 14.091 102.312 14.9959 102.312 15.9783C102.312 17.0296 102.152 17.9776 101.83 18.8221C101.509 19.6494 101.037 20.3561 100.412 20.9421C99.806 21.5281 99.0568 21.9762 98.165 22.2865C97.291 22.5967 96.3011 22.7518 95.1952 22.7518C93.9823 22.7518 92.9299 22.5881 92.0381 22.2606C91.1462 21.9159 90.406 21.4505 89.8174 20.8645C89.2288 20.2613 88.7918 19.546 88.5064 18.7187C88.221 17.8742 88.0783 16.9607 88.0783 15.9783ZM92.2254 15.9783C92.2254 16.7539 92.2699 17.4691 92.3591 18.1241C92.4662 18.7618 92.6445 19.3047 92.8942 19.7528C93.144 20.201 93.4828 20.5543 93.9109 20.8128C94.339 21.0541 94.892 21.1748 95.5697 21.1748C95.9622 21.1748 96.3189 21.0886 96.64 20.9162C96.961 20.7266 97.2375 20.4336 97.4694 20.0372C97.7012 19.6236 97.8707 19.0893 97.9777 18.4343C98.1026 17.7621 98.165 16.9435 98.165 15.9783C98.165 15.1855 98.1115 14.4702 98.0045 13.8325C97.9153 13.1948 97.7458 12.6518 97.4961 12.2037C97.2642 11.7556 96.9432 11.4109 96.5329 11.1696C96.1227 10.9111 95.6054 10.7818 94.9811 10.7818C94.5174 10.7818 94.1161 10.8766 93.7772 11.0662C93.4383 11.2385 93.1529 11.5315 92.921 11.9452C92.6891 12.3416 92.5107 12.8759 92.3859 13.5481C92.2789 14.203 92.2254 15.0131 92.2254 15.9783Z" fill="#001D23"/>
<path d="M104.927 5.14581L102.894 4.93899V3.93071C103.162 3.8273 103.509 3.72389 103.937 3.62048C104.383 3.51706 104.838 3.43089 105.302 3.36194C105.784 3.27577 106.247 3.20682 106.693 3.15512C107.157 3.08618 107.549 3.03447 107.87 3H108.78V11.9452H108.834C109.19 11.0834 109.734 10.4112 110.466 9.92864C111.197 9.44605 112.062 9.20476 113.061 9.20476C114.631 9.20476 115.852 9.73044 116.726 10.7818C117.6 11.8332 118.037 13.4274 118.037 15.5646C118.037 17.9259 117.386 19.7011 116.084 20.8904C114.8 22.0796 112.909 22.6743 110.412 22.6743C109.966 22.6743 109.467 22.6398 108.914 22.5708C108.361 22.5191 107.826 22.4502 107.309 22.364C106.791 22.2778 106.31 22.1744 105.864 22.0538C105.436 21.9331 105.124 21.8125 104.927 21.6918V5.14581ZM111.322 11.273C110.644 11.273 110.1 11.5143 109.69 11.9969C109.28 12.4623 108.976 13.0569 108.78 13.7808V20.6319C109.03 20.8042 109.333 20.9421 109.69 21.0455C110.064 21.1489 110.484 21.2006 110.947 21.2006C111.964 21.2006 112.704 20.7611 113.168 19.8821C113.65 19.0031 113.89 17.6243 113.89 15.7456C113.89 14.384 113.694 13.2982 113.302 12.4881C112.927 11.678 112.267 11.273 111.322 11.273Z" fill="#001D23"/>
<path d="M119.489 11.1437C119.221 11.0748 118.971 10.9886 118.74 10.8852C118.525 10.7818 118.302 10.6612 118.071 10.5233V9.515H125.107V10.4974C124.733 10.7387 124.224 10.9542 123.582 11.1437L126.284 17.6329L126.739 19.2875H126.793L127.221 17.607L129.308 11.1437C128.773 11.0403 128.282 10.8335 127.836 10.5233V9.515H133V10.5233C132.625 10.7646 132.117 10.9714 131.475 11.1437L127.114 22.4416C126.686 23.5446 126.258 24.4409 125.83 25.1303C125.402 25.837 124.973 26.3971 124.545 26.8108C124.117 27.2244 123.689 27.5088 123.261 27.6639C122.833 27.8363 122.405 27.9483 121.977 28C121.799 27.8449 121.638 27.6467 121.495 27.4054C121.353 27.1813 121.228 26.9314 121.121 26.6556C121.014 26.3971 120.924 26.13 120.853 25.8542C120.782 25.5784 120.737 25.3199 120.719 25.0786L121.067 24.4581H124.331C124.492 24.2168 124.626 23.9583 124.733 23.6825C124.858 23.4068 125 22.9931 125.161 22.4416L119.489 11.1437Z" fill="#001D23"/>
<defs>
<clipPath id="clip0_2285_16">
<rect width="35" height="31" fill="white"/>
</clipPath>
</defs>
</svg>
