<svg width="160" height="37" viewBox="0 0 160 37" fill="none" xmlns="http://www.w3.org/2000/svg">
<g clip-path="url(#clip0_2280_4)">
<path d="M9.82355 0.196819C7.2182 0.588463 5.15673 1.61544 3.32334 3.43442C1.5689 5.17507 0.542553 7.11588 0.130259 9.48316C-0.0276404 10.3796 -0.0451848 12.2682 0.0951705 13.2517C0.612731 16.9592 2.79701 21.0236 6.49888 25.1577C9.84109 28.8914 14.7974 32.9819 19.8502 36.1586C20.4642 36.5502 21.0081 36.8635 21.052 36.8635C21.166 36.8635 22.2889 36.1673 23.8678 35.1142C30.0259 30.9975 35.4472 25.9671 38.4736 21.5458C40.921 17.9688 42.1053 14.6877 42.1053 11.4501C42.1053 8.25601 41.0351 5.67115 38.7806 3.43442C37.1928 1.85913 35.6314 0.98011 33.4646 0.431805C32.3857 0.153301 30.333 0.0575676 29.2189 0.214226C26.1486 0.658089 23.4819 2.23337 21.6573 4.67898C21.359 5.07063 21.0871 5.40135 21.052 5.40135C21.0169 5.40135 20.7537 5.08803 20.4642 4.70509C18.6747 2.303 16.1746 0.779934 13.2096 0.266445C12.4991 0.1446 10.4288 0.101082 9.82355 0.196819ZM17.4466 6.92441C18.7098 7.49883 19.6747 9.10892 19.7975 10.8844C19.894 12.2247 19.5256 13.3213 18.7712 14.0001C17.8063 14.8618 16.6045 14.7051 15.5343 13.5824C13.6833 11.6416 13.8061 7.80344 15.7448 6.91571C16.2097 6.69813 16.9553 6.70683 17.4466 6.92441ZM26.5697 7.03756C27.9557 7.9514 28.3154 10.4405 27.3329 12.4597C26.982 13.1907 26.3065 13.9479 25.7276 14.2525C24.2626 15.0358 22.824 14.2003 22.4029 12.3378C21.938 10.2578 22.8941 7.81214 24.4994 7.01145C24.9731 6.76776 25.1135 6.74165 25.6223 6.76776C26.0784 6.79387 26.2802 6.85479 26.5697 7.03756ZM11.5429 13.2865C11.9201 13.4257 12.192 13.6259 12.6219 14.0524C13.9202 15.3491 14.3939 17.29 13.7272 18.6303C12.9552 20.2055 10.8499 19.8922 9.63933 18.0384C8.44631 16.2108 8.56912 13.9914 9.9025 13.3039C10.3937 13.0515 10.8938 13.0515 11.5429 13.2865ZM32.1927 13.2952C34.1489 14.2786 33.3067 18.2995 30.9207 19.4223C30.0347 19.84 29.0084 19.6311 28.5434 18.9436C27.6487 17.6033 28.061 15.471 29.4821 14.0524C30.3856 13.1472 31.3593 12.8774 32.1927 13.2952ZM22.3678 16.9679C25.3153 17.4988 27.7013 19.753 28.6487 22.8948C28.868 23.5998 28.8855 23.8174 28.8943 25.1142C28.9119 27.6642 28.4645 28.6999 27.2802 28.9001C26.7539 28.9871 26.4556 28.8827 25.6749 28.3518C25.2802 28.0907 24.6398 27.7251 24.2451 27.5424C21.745 26.3761 18.6922 26.6894 16.4466 28.3518C15.8062 28.8304 15.3764 28.9784 14.8676 28.9088C13.6482 28.726 13.1921 27.6903 13.2096 25.1142C13.2184 23.8174 13.2359 23.5998 13.4552 22.8948C14.7097 18.7521 18.4466 16.263 22.3678 16.9679Z" fill="url(#paint0_linear_2280_4)"/>
</g>
<path d="M57.8372 24.2241C58.0732 24.4504 58.4058 24.6664 58.835 24.8721C59.2641 25.0573 59.8328 25.1499 60.5409 25.1499C61.7211 25.1499 62.6974 24.8619 63.4699 24.2859C64.2638 23.6893 64.6608 22.8664 64.6608 21.8173C64.6608 21.0562 64.4033 20.4184 63.8883 19.9042C63.3948 19.3899 62.7618 18.9167 61.9893 18.4847C61.2168 18.0527 60.3907 17.631 59.5109 17.2196C58.6311 16.7876 57.805 16.2836 57.0325 15.7076C56.2601 15.1316 55.6163 14.4528 55.1013 13.671C54.6078 12.8688 54.361 11.8813 54.361 10.7088C54.361 9.70078 54.5542 8.8265 54.9404 8.08593C55.3266 7.34536 55.8524 6.73851 56.5176 6.26537C57.2042 5.77166 58.0089 5.41166 58.9316 5.18537C59.8542 4.93852 60.852 4.81509 61.9249 4.81509C63.2338 4.81509 64.4462 4.90766 65.562 5.0928C66.6993 5.25737 67.7185 5.5248 68.6197 5.89508C68.5983 6.30651 68.5554 6.77965 68.491 7.31451C68.4481 7.84936 68.3837 8.38421 68.2979 8.91907C68.212 9.43335 68.1155 9.92707 68.0082 10.4002C67.9224 10.8528 67.8365 11.2333 67.7507 11.5419H66.431L64.9505 7.31451C64.693 7.19108 64.3067 7.07794 63.7917 6.97508C63.2982 6.87222 62.7832 6.8208 62.2468 6.8208C61.3456 6.8208 60.5838 7.04708 59.9615 7.49965C59.3393 7.95222 59.0281 8.6105 59.0281 9.4745C59.0281 10.2562 59.2856 10.9248 59.8006 11.4802C60.3156 12.0151 60.9593 12.5088 61.7318 12.9613C62.5043 13.4139 63.3411 13.8665 64.2424 14.319C65.165 14.751 66.0126 15.255 66.7851 15.831C67.5576 16.407 68.2013 17.0859 68.7163 17.8676C69.2313 18.6287 69.4888 19.575 69.4888 20.7064C69.4888 22.7636 68.7592 24.3579 67.3001 25.4893C65.8624 26.6001 63.7381 27.1556 60.9271 27.1556C60.2405 27.1556 59.5431 27.1144 58.835 27.0321C58.1483 26.9498 57.4939 26.8367 56.8716 26.6927C56.2493 26.5487 55.6914 26.3944 55.1979 26.2298C54.7258 26.0653 54.3718 25.8904 54.1357 25.7053C54.1572 25.2321 54.2108 24.7281 54.2967 24.1933C54.3825 23.6379 54.4683 23.0927 54.5542 22.5579C54.6615 22.0024 54.7687 21.4779 54.876 20.9842C54.9833 20.4904 55.0906 20.0584 55.1979 19.6882H56.5176L57.8372 24.2241Z" fill="white"/>
<path d="M85.4088 24.2859C85.2586 24.6973 85.0119 25.0778 84.6686 25.4276C84.3252 25.7567 83.9068 26.055 83.4133 26.3224C82.9412 26.5898 82.394 26.7956 81.7718 26.9396C81.1709 27.0836 80.5379 27.1556 79.8727 27.1556C78.4565 27.1556 77.2334 26.9704 76.2035 26.6001C75.1949 26.2093 74.3581 25.6641 73.6929 24.9647C73.0277 24.2447 72.5342 23.391 72.2123 22.4036C71.8905 21.3956 71.7295 20.2847 71.7295 19.071C71.7295 16.4585 72.4698 14.463 73.9504 13.0848C75.4524 11.6859 77.5768 10.9865 80.3234 10.9865C81.3748 10.9865 82.3404 11.0996 83.2202 11.3259C84.0999 11.5316 84.8295 11.7785 85.4088 12.0665C85.3659 12.4162 85.3016 12.8071 85.2157 13.239C85.1514 13.6505 85.0655 14.0722 84.9582 14.5042C84.8724 14.9156 84.7651 15.327 84.6364 15.7385C84.5076 16.1293 84.3789 16.4585 84.2501 16.7259H82.673L81.3211 13.0539C81.1709 12.951 81.01 12.8791 80.8383 12.8379C80.6667 12.7762 80.4092 12.7453 80.0659 12.7453C79.508 12.7453 79.0252 12.8482 78.6175 13.0539C78.2098 13.239 77.8557 13.5682 77.5553 14.0413C77.2764 14.5145 77.0618 15.1419 76.9116 15.9236C76.7828 16.7053 76.7184 17.6722 76.7184 18.8242C76.7184 19.6676 76.815 20.4493 77.0081 21.1693C77.2013 21.8687 77.4909 22.4859 77.8772 23.0207C78.2849 23.535 78.7891 23.9464 79.3899 24.255C79.9908 24.543 80.6989 24.687 81.5143 24.687C82.2653 24.687 82.9197 24.5841 83.4776 24.3784C84.0355 24.1727 84.5076 23.9259 84.8939 23.6379L85.4088 24.2859Z" fill="white"/>
<path d="M86.8484 19.071C86.8484 17.8162 87.0416 16.695 87.4278 15.7076C87.8355 14.6996 88.4041 13.8459 89.1337 13.1465C89.8847 12.4471 90.7859 11.9122 91.8374 11.5419C92.8888 11.1716 94.0797 10.9865 95.4101 10.9865C96.9121 10.9865 98.1996 11.1922 99.2725 11.6036C100.367 11.9945 101.257 12.5499 101.944 13.2699C102.652 13.9693 103.167 14.823 103.489 15.831C103.811 16.8185 103.972 17.8985 103.972 19.071C103.972 20.3259 103.779 21.4573 103.392 22.4653C103.006 23.4527 102.438 24.2961 101.686 24.9956C100.957 25.695 100.056 26.2298 98.9828 26.6001C97.9314 26.9704 96.7405 27.1556 95.4101 27.1556C93.951 27.1556 92.685 26.9601 91.6121 26.5693C90.5392 26.1578 89.6487 25.6024 88.9406 24.903C88.2325 24.183 87.7068 23.3293 87.3634 22.3419C87.0201 21.3339 86.8484 20.2436 86.8484 19.071ZM91.8374 19.071C91.8374 19.9967 91.891 20.8504 91.9983 21.6322C92.1271 22.3933 92.3416 23.0413 92.642 23.5761C92.9425 24.111 93.3501 24.5327 93.8651 24.8413C94.3801 25.1293 95.0453 25.2733 95.8607 25.2733C96.3328 25.2733 96.7619 25.1704 97.1482 24.9647C97.5344 24.7384 97.867 24.3887 98.146 23.9156C98.4249 23.4219 98.6288 22.7841 98.7575 22.0024C98.9077 21.2002 98.9828 20.223 98.9828 19.071C98.9828 18.1247 98.9184 17.271 98.7897 16.5099C98.6824 15.7488 98.4786 15.1008 98.1781 14.5659C97.8992 14.031 97.513 13.6196 97.0194 13.3316C96.5259 13.0231 95.9036 12.8688 95.1526 12.8688C94.5947 12.8688 94.1119 12.9819 93.7042 13.2082C93.2965 13.4139 92.9532 13.7636 92.6742 14.2573C92.3953 14.7305 92.1807 15.3682 92.0305 16.1705C91.9017 16.9522 91.8374 17.919 91.8374 19.071Z" fill="white"/>
<path d="M105.959 19.071C105.959 17.8162 106.152 16.695 106.539 15.7076C106.946 14.6996 107.515 13.8459 108.245 13.1465C108.996 12.4471 109.897 11.9122 110.948 11.5419C112 11.1716 113.191 10.9865 114.521 10.9865C116.023 10.9865 117.31 11.1922 118.383 11.6036C119.478 11.9945 120.368 12.5499 121.055 13.2699C121.763 13.9693 122.278 14.823 122.6 15.831C122.922 16.8185 123.083 17.8985 123.083 19.071C123.083 20.3259 122.889 21.4573 122.503 22.4653C122.117 23.4527 121.548 24.2961 120.797 24.9956C120.068 25.695 119.167 26.2298 118.094 26.6001C117.042 26.9704 115.851 27.1556 114.521 27.1556C113.062 27.1556 111.796 26.9601 110.723 26.5693C109.65 26.1578 108.76 25.6024 108.051 24.903C107.343 24.183 106.818 23.3293 106.474 22.3419C106.131 21.3339 105.959 20.2436 105.959 19.071ZM110.948 19.071C110.948 19.9967 111.002 20.8504 111.109 21.6322C111.238 22.3933 111.452 23.0413 111.753 23.5761C112.053 24.111 112.461 24.5327 112.976 24.8413C113.491 25.1293 114.156 25.2733 114.972 25.2733C115.444 25.2733 115.873 25.1704 116.259 24.9647C116.645 24.7384 116.978 24.3887 117.257 23.9156C117.536 23.4219 117.74 22.7841 117.868 22.0024C118.019 21.2002 118.094 20.223 118.094 19.071C118.094 18.1247 118.029 17.271 117.901 16.5099C117.793 15.7488 117.589 15.1008 117.289 14.5659C117.01 14.031 116.624 13.6196 116.13 13.3316C115.637 13.0231 115.014 12.8688 114.263 12.8688C113.706 12.8688 113.223 12.9819 112.815 13.2082C112.407 13.4139 112.064 13.7636 111.785 14.2573C111.506 14.7305 111.292 15.3682 111.141 16.1705C111.013 16.9522 110.948 17.919 110.948 19.071Z" fill="white"/>
<path d="M126.229 6.14194L123.783 5.89508V4.69166C124.104 4.56823 124.523 4.44481 125.038 4.32138C125.574 4.19795 126.122 4.09509 126.679 4.01281C127.259 3.90995 127.817 3.82767 128.353 3.76595C128.911 3.68367 129.383 3.62195 129.769 3.58081H130.864V14.2573H130.928C131.357 13.2288 132.012 12.4265 132.891 11.8505C133.771 11.2745 134.812 10.9865 136.014 10.9865C137.902 10.9865 139.372 11.6139 140.423 12.8688C141.475 14.1236 142 16.0265 142 18.5773C142 21.3956 141.217 23.5144 139.651 24.9338C138.106 26.3533 135.831 27.063 132.827 27.063C132.291 27.063 131.69 27.0218 131.025 26.9396C130.359 26.8778 129.716 26.7956 129.093 26.6927C128.471 26.5898 127.892 26.4664 127.355 26.3224C126.84 26.1784 126.465 26.0344 126.229 25.8904V6.14194ZM133.921 13.455C133.106 13.455 132.452 13.743 131.958 14.319C131.465 14.8745 131.1 15.5842 130.864 16.4482V24.6253C131.164 24.831 131.529 24.9956 131.958 25.119C132.409 25.2424 132.913 25.3041 133.471 25.3041C134.694 25.3041 135.584 24.7796 136.142 23.7304C136.722 22.6813 137.011 21.0356 137.011 18.7933C137.011 17.1682 136.775 15.8722 136.303 14.9053C135.853 13.9385 135.059 13.455 133.921 13.455Z" fill="white"/>
<path d="M143.746 13.3008C143.424 13.2185 143.124 13.1156 142.845 12.9922C142.587 12.8688 142.319 12.7248 142.04 12.5602V11.3568H150.505V12.5293C150.055 12.8173 149.443 13.0745 148.671 13.3008L151.922 21.0459L152.469 23.0207H152.533L153.048 21.015L155.559 13.3008C154.915 13.1773 154.325 12.9305 153.788 12.5602V11.3568H160V12.5602C159.55 12.8482 158.938 13.095 158.166 13.3008L152.919 26.7853C152.404 28.1018 151.889 29.1715 151.374 29.9944C150.859 30.8378 150.344 31.5064 149.829 32.0001C149.314 32.4938 148.799 32.8332 148.284 33.0184C147.769 33.2241 147.254 33.3578 146.74 33.4195C146.525 33.2344 146.332 32.9978 146.16 32.7098C145.988 32.4424 145.838 32.1441 145.71 31.815C145.581 31.5064 145.473 31.1875 145.388 30.8584C145.302 30.5292 145.248 30.2207 145.227 29.9327L145.645 29.1921H149.572C149.765 28.9041 149.926 28.5955 150.055 28.2664C150.205 27.9373 150.377 27.4436 150.57 26.7853L143.746 13.3008Z" fill="white"/>
<defs>
<linearGradient id="paint0_linear_2280_4" x1="0" y1="18.5013" x2="42.1053" y2="18.5013" gradientUnits="userSpaceOnUse">
<stop stop-color="#F86CA7"/>
<stop offset="1" stop-color="#FF7F18"/>
</linearGradient>
<clipPath id="clip0_2280_4">
<rect width="42.1053" height="37" fill="white"/>
</clipPath>
</defs>
</svg>
